<mxfile host="app.diagrams.net" modified="2022-03-29T17:22:56.293Z" agent="5.0 (Windows NT 10.0; Win64; x64) AppleWebKit/537.36 (KHTML, like Gecko) Chrome/99.0.4844.84 Safari/537.36" etag="J8GGjrZ0jY1yM78kv6ny" version="17.2.4" type="github" pages="2">
  <diagram id="ZG8fxKvtveISpSbeAfdD" name="Page-1">
    <mxGraphModel dx="1038" dy="571" grid="1" gridSize="10" guides="1" tooltips="1" connect="1" arrows="1" fold="1" page="1" pageScale="1" pageWidth="827" pageHeight="1169" math="0" shadow="0">
      <root>
        <mxCell id="0" />
        <mxCell id="1" parent="0" />
        <mxCell id="gX7OQJnwYW2CFA1KDfCZ-1" value="" style="rounded=0;whiteSpace=wrap;html=1;" parent="1" vertex="1">
          <mxGeometry x="130" y="10" width="800" height="1100" as="geometry" />
        </mxCell>
        <mxCell id="gX7OQJnwYW2CFA1KDfCZ-2" value="Warden" style="shape=umlActor;verticalLabelPosition=bottom;verticalAlign=top;html=1;outlineConnect=0;" parent="1" vertex="1">
          <mxGeometry x="1080" y="390" width="50" height="130" as="geometry" />
        </mxCell>
        <mxCell id="gX7OQJnwYW2CFA1KDfCZ-9" value="Student" style="shape=umlActor;verticalLabelPosition=bottom;verticalAlign=top;html=1;outlineConnect=0;" parent="1" vertex="1">
          <mxGeometry x="30" y="310" width="40" height="120" as="geometry" />
        </mxCell>
        <mxCell id="gX7OQJnwYW2CFA1KDfCZ-11" value="Check Hostel Facilities" style="ellipse;whiteSpace=wrap;html=1;" parent="1" vertex="1">
          <mxGeometry x="220" y="150" width="140" height="70" as="geometry" />
        </mxCell>
        <mxCell id="gX7OQJnwYW2CFA1KDfCZ-12" value="Login" style="ellipse;whiteSpace=wrap;html=1;" parent="1" vertex="1">
          <mxGeometry x="210" y="50" width="140" height="70" as="geometry" />
        </mxCell>
        <mxCell id="gX7OQJnwYW2CFA1KDfCZ-13" value="Allot Room" style="ellipse;whiteSpace=wrap;html=1;" parent="1" vertex="1">
          <mxGeometry x="240" y="230" width="140" height="70" as="geometry" />
        </mxCell>
        <mxCell id="gX7OQJnwYW2CFA1KDfCZ-15" value="Pay Fees" style="ellipse;whiteSpace=wrap;html=1;" parent="1" vertex="1">
          <mxGeometry x="220" y="480" width="140" height="70" as="geometry" />
        </mxCell>
        <mxCell id="gX7OQJnwYW2CFA1KDfCZ-21" value="" style="endArrow=none;html=1;rounded=0;entryX=0;entryY=0.5;entryDx=0;entryDy=0;exitX=0.5;exitY=0;exitDx=0;exitDy=0;exitPerimeter=0;" parent="1" source="gX7OQJnwYW2CFA1KDfCZ-9" target="gX7OQJnwYW2CFA1KDfCZ-12" edge="1">
          <mxGeometry width="50" height="50" relative="1" as="geometry">
            <mxPoint x="120" y="390" as="sourcePoint" />
            <mxPoint x="440" y="150" as="targetPoint" />
          </mxGeometry>
        </mxCell>
        <mxCell id="gX7OQJnwYW2CFA1KDfCZ-22" value="" style="endArrow=none;html=1;rounded=0;exitX=0.75;exitY=0.1;exitDx=0;exitDy=0;exitPerimeter=0;entryX=0;entryY=0.5;entryDx=0;entryDy=0;" parent="1" source="gX7OQJnwYW2CFA1KDfCZ-9" target="gX7OQJnwYW2CFA1KDfCZ-11" edge="1">
          <mxGeometry width="50" height="50" relative="1" as="geometry">
            <mxPoint x="390" y="200" as="sourcePoint" />
            <mxPoint x="440" y="150" as="targetPoint" />
          </mxGeometry>
        </mxCell>
        <mxCell id="gX7OQJnwYW2CFA1KDfCZ-23" value="" style="edgeStyle=none;html=1;endArrow=none;verticalAlign=bottom;rounded=0;exitX=1;exitY=0.3333333333333333;exitDx=0;exitDy=0;exitPerimeter=0;entryX=0;entryY=0.5;entryDx=0;entryDy=0;" parent="1" source="gX7OQJnwYW2CFA1KDfCZ-9" target="gX7OQJnwYW2CFA1KDfCZ-13" edge="1">
          <mxGeometry width="160" relative="1" as="geometry">
            <mxPoint x="330" y="280" as="sourcePoint" />
            <mxPoint x="490" y="280" as="targetPoint" />
            <Array as="points" />
          </mxGeometry>
        </mxCell>
        <mxCell id="gX7OQJnwYW2CFA1KDfCZ-24" value="" style="endArrow=none;html=1;rounded=0;entryX=0;entryY=0.5;entryDx=0;entryDy=0;exitX=1;exitY=1;exitDx=0;exitDy=0;exitPerimeter=0;" parent="1" source="gX7OQJnwYW2CFA1KDfCZ-9" target="gX7OQJnwYW2CFA1KDfCZ-15" edge="1">
          <mxGeometry width="50" height="50" relative="1" as="geometry">
            <mxPoint x="80" y="380" as="sourcePoint" />
            <mxPoint x="430" y="340" as="targetPoint" />
          </mxGeometry>
        </mxCell>
        <mxCell id="gX7OQJnwYW2CFA1KDfCZ-25" value="Verify Credentials" style="ellipse;whiteSpace=wrap;html=1;" parent="1" vertex="1">
          <mxGeometry x="430" y="20" width="140" height="70" as="geometry" />
        </mxCell>
        <mxCell id="gX7OQJnwYW2CFA1KDfCZ-28" value="Error Login" style="ellipse;whiteSpace=wrap;html=1;" parent="1" vertex="1">
          <mxGeometry x="430" y="110" width="140" height="70" as="geometry" />
        </mxCell>
        <mxCell id="gX7OQJnwYW2CFA1KDfCZ-31" value="Cheque Payment" style="ellipse;whiteSpace=wrap;html=1;" parent="1" vertex="1">
          <mxGeometry x="140" y="605" width="140" height="70" as="geometry" />
        </mxCell>
        <mxCell id="gX7OQJnwYW2CFA1KDfCZ-32" value="Cash Payment" style="ellipse;whiteSpace=wrap;html=1;" parent="1" vertex="1">
          <mxGeometry x="320" y="605" width="140" height="70" as="geometry" />
        </mxCell>
        <mxCell id="gX7OQJnwYW2CFA1KDfCZ-33" value="Draft Pament" style="ellipse;whiteSpace=wrap;html=1;" parent="1" vertex="1">
          <mxGeometry x="220" y="690" width="140" height="70" as="geometry" />
        </mxCell>
        <mxCell id="gX7OQJnwYW2CFA1KDfCZ-34" value="" style="edgeStyle=none;html=1;endArrow=block;endFill=0;endSize=12;verticalAlign=bottom;rounded=0;exitX=0.5;exitY=0;exitDx=0;exitDy=0;entryX=0.5;entryY=1;entryDx=0;entryDy=0;" parent="1" source="gX7OQJnwYW2CFA1KDfCZ-33" target="gX7OQJnwYW2CFA1KDfCZ-15" edge="1">
          <mxGeometry width="160" relative="1" as="geometry">
            <mxPoint x="320" y="470" as="sourcePoint" />
            <mxPoint x="280" y="550" as="targetPoint" />
            <Array as="points" />
          </mxGeometry>
        </mxCell>
        <mxCell id="gX7OQJnwYW2CFA1KDfCZ-35" value="" style="edgeStyle=none;html=1;endArrow=block;endFill=0;endSize=12;verticalAlign=bottom;rounded=0;exitX=0.5;exitY=0;exitDx=0;exitDy=0;entryX=0.5;entryY=1;entryDx=0;entryDy=0;" parent="1" source="gX7OQJnwYW2CFA1KDfCZ-32" target="gX7OQJnwYW2CFA1KDfCZ-15" edge="1">
          <mxGeometry width="160" relative="1" as="geometry">
            <mxPoint x="330" y="580" as="sourcePoint" />
            <mxPoint x="280" y="550" as="targetPoint" />
            <Array as="points">
              <mxPoint x="390" y="590" />
              <mxPoint x="290" y="590" />
            </Array>
          </mxGeometry>
        </mxCell>
        <mxCell id="gX7OQJnwYW2CFA1KDfCZ-37" value="" style="edgeStyle=none;html=1;endArrow=block;endFill=0;endSize=12;verticalAlign=bottom;rounded=0;exitX=0.5;exitY=0;exitDx=0;exitDy=0;entryX=0.5;entryY=1;entryDx=0;entryDy=0;" parent="1" source="gX7OQJnwYW2CFA1KDfCZ-31" target="gX7OQJnwYW2CFA1KDfCZ-15" edge="1">
          <mxGeometry width="160" relative="1" as="geometry">
            <mxPoint x="140" y="580" as="sourcePoint" />
            <mxPoint x="280" y="550" as="targetPoint" />
            <Array as="points">
              <mxPoint x="210" y="590" />
              <mxPoint x="290" y="590" />
            </Array>
          </mxGeometry>
        </mxCell>
        <mxCell id="gX7OQJnwYW2CFA1KDfCZ-38" value="Single" style="ellipse;whiteSpace=wrap;html=1;" parent="1" vertex="1">
          <mxGeometry x="160" y="330" width="140" height="70" as="geometry" />
        </mxCell>
        <mxCell id="gX7OQJnwYW2CFA1KDfCZ-39" value="" style="edgeStyle=none;html=1;endArrow=block;endFill=0;endSize=12;verticalAlign=bottom;rounded=0;exitX=0.5;exitY=0;exitDx=0;exitDy=0;entryX=0.5;entryY=1;entryDx=0;entryDy=0;" parent="1" source="gX7OQJnwYW2CFA1KDfCZ-38" target="gX7OQJnwYW2CFA1KDfCZ-13" edge="1">
          <mxGeometry width="160" relative="1" as="geometry">
            <mxPoint x="330" y="370" as="sourcePoint" />
            <mxPoint x="490" y="370" as="targetPoint" />
            <Array as="points">
              <mxPoint x="230" y="320" />
              <mxPoint x="310" y="320" />
            </Array>
          </mxGeometry>
        </mxCell>
        <mxCell id="gX7OQJnwYW2CFA1KDfCZ-40" value="Double" style="ellipse;whiteSpace=wrap;html=1;" parent="1" vertex="1">
          <mxGeometry x="330" y="330" width="140" height="70" as="geometry" />
        </mxCell>
        <mxCell id="gX7OQJnwYW2CFA1KDfCZ-41" value="" style="edgeStyle=none;html=1;endArrow=block;endFill=0;endSize=12;verticalAlign=bottom;rounded=0;exitX=0.5;exitY=0;exitDx=0;exitDy=0;entryX=0.5;entryY=1;entryDx=0;entryDy=0;" parent="1" source="gX7OQJnwYW2CFA1KDfCZ-40" target="gX7OQJnwYW2CFA1KDfCZ-13" edge="1">
          <mxGeometry width="160" relative="1" as="geometry">
            <mxPoint x="490" y="360" as="sourcePoint" />
            <mxPoint x="460" y="290" as="targetPoint" />
            <Array as="points">
              <mxPoint x="400" y="320" />
              <mxPoint x="310" y="320" />
            </Array>
          </mxGeometry>
        </mxCell>
        <mxCell id="gX7OQJnwYW2CFA1KDfCZ-42" value="Air Conditioned" style="ellipse;whiteSpace=wrap;html=1;" parent="1" vertex="1">
          <mxGeometry x="240" y="400" width="140" height="70" as="geometry" />
        </mxCell>
        <mxCell id="gX7OQJnwYW2CFA1KDfCZ-43" value="" style="edgeStyle=none;html=1;endArrow=block;endFill=0;endSize=12;verticalAlign=bottom;rounded=0;exitX=0.5;exitY=0;exitDx=0;exitDy=0;entryX=0.5;entryY=1;entryDx=0;entryDy=0;exitPerimeter=0;" parent="1" source="gX7OQJnwYW2CFA1KDfCZ-42" target="gX7OQJnwYW2CFA1KDfCZ-13" edge="1">
          <mxGeometry width="160" relative="1" as="geometry">
            <mxPoint x="330" y="370" as="sourcePoint" />
            <mxPoint x="490" y="370" as="targetPoint" />
            <Array as="points">
              <mxPoint x="310" y="320" />
            </Array>
          </mxGeometry>
        </mxCell>
        <mxCell id="gX7OQJnwYW2CFA1KDfCZ-44" value="" style="endArrow=none;html=1;rounded=0;exitX=1;exitY=0.5;exitDx=0;exitDy=0;entryX=0.25;entryY=0.1;entryDx=0;entryDy=0;entryPerimeter=0;" parent="1" source="gX7OQJnwYW2CFA1KDfCZ-13" target="gX7OQJnwYW2CFA1KDfCZ-2" edge="1">
          <mxGeometry width="50" height="50" relative="1" as="geometry">
            <mxPoint x="390" y="390" as="sourcePoint" />
            <mxPoint x="740" y="440" as="targetPoint" />
          </mxGeometry>
        </mxCell>
        <mxCell id="gX7OQJnwYW2CFA1KDfCZ-45" value="" style="endArrow=none;html=1;rounded=0;exitX=1;exitY=0.5;exitDx=0;exitDy=0;" parent="1" source="gX7OQJnwYW2CFA1KDfCZ-15" target="gX7OQJnwYW2CFA1KDfCZ-2" edge="1">
          <mxGeometry width="50" height="50" relative="1" as="geometry">
            <mxPoint x="390" y="590" as="sourcePoint" />
            <mxPoint x="760" y="460" as="targetPoint" />
          </mxGeometry>
        </mxCell>
        <mxCell id="gX7OQJnwYW2CFA1KDfCZ-46" value="Error during Payment" style="ellipse;whiteSpace=wrap;html=1;" parent="1" vertex="1">
          <mxGeometry x="427" y="520" width="120" height="80" as="geometry" />
        </mxCell>
        <mxCell id="gX7OQJnwYW2CFA1KDfCZ-49" value="Check Fines and Penalties" style="ellipse;whiteSpace=wrap;html=1;" parent="1" vertex="1">
          <mxGeometry x="414" y="400" width="120" height="80" as="geometry" />
        </mxCell>
        <mxCell id="gX7OQJnwYW2CFA1KDfCZ-54" value="Check Room information" style="ellipse;whiteSpace=wrap;html=1;" parent="1" vertex="1">
          <mxGeometry x="700" y="870" width="140" height="70" as="geometry" />
        </mxCell>
        <mxCell id="gX7OQJnwYW2CFA1KDfCZ-55" value="" style="edgeStyle=none;html=1;endArrow=none;verticalAlign=bottom;rounded=0;entryX=1;entryY=0.5;entryDx=0;entryDy=0;" parent="1" source="gX7OQJnwYW2CFA1KDfCZ-77" target="gX7OQJnwYW2CFA1KDfCZ-54" edge="1">
          <mxGeometry width="160" relative="1" as="geometry">
            <mxPoint x="40" y="890" as="sourcePoint" />
            <mxPoint x="490" y="850" as="targetPoint" />
          </mxGeometry>
        </mxCell>
        <mxCell id="gX7OQJnwYW2CFA1KDfCZ-56" value="Enter&lt;br&gt;Check-in/Check-out&lt;br&gt;Information" style="ellipse;whiteSpace=wrap;html=1;" parent="1" vertex="1">
          <mxGeometry x="700" y="950" width="140" height="70" as="geometry" />
        </mxCell>
        <mxCell id="gX7OQJnwYW2CFA1KDfCZ-57" value="" style="edgeStyle=none;html=1;endArrow=none;verticalAlign=bottom;rounded=0;entryX=1;entryY=0.5;entryDx=0;entryDy=0;" parent="1" source="gX7OQJnwYW2CFA1KDfCZ-77" target="gX7OQJnwYW2CFA1KDfCZ-56" edge="1">
          <mxGeometry width="160" relative="1" as="geometry">
            <mxPoint x="40" y="890" as="sourcePoint" />
            <mxPoint x="490" y="850" as="targetPoint" />
          </mxGeometry>
        </mxCell>
        <mxCell id="gX7OQJnwYW2CFA1KDfCZ-58" value="Add/Update/Delete Rooms" style="ellipse;whiteSpace=wrap;html=1;" parent="1" vertex="1">
          <mxGeometry x="790" y="30" width="120" height="80" as="geometry" />
        </mxCell>
        <mxCell id="gX7OQJnwYW2CFA1KDfCZ-60" value="" style="edgeStyle=none;html=1;endArrow=none;verticalAlign=bottom;rounded=0;exitX=1;exitY=0.5;exitDx=0;exitDy=0;entryX=0.5;entryY=0;entryDx=0;entryDy=0;entryPerimeter=0;" parent="1" source="gX7OQJnwYW2CFA1KDfCZ-58" target="gX7OQJnwYW2CFA1KDfCZ-2" edge="1">
          <mxGeometry width="160" relative="1" as="geometry">
            <mxPoint x="720" y="230" as="sourcePoint" />
            <mxPoint x="880" y="230" as="targetPoint" />
          </mxGeometry>
        </mxCell>
        <mxCell id="gX7OQJnwYW2CFA1KDfCZ-61" value="View Student &lt;br&gt;Information" style="ellipse;whiteSpace=wrap;html=1;" parent="1" vertex="1">
          <mxGeometry x="710" y="190" width="140" height="70" as="geometry" />
        </mxCell>
        <mxCell id="gX7OQJnwYW2CFA1KDfCZ-62" value="View Staff&lt;br&gt;&amp;nbsp;Information" style="ellipse;whiteSpace=wrap;html=1;" parent="1" vertex="1">
          <mxGeometry x="720" y="380" width="140" height="70" as="geometry" />
        </mxCell>
        <mxCell id="gX7OQJnwYW2CFA1KDfCZ-65" value="" style="edgeStyle=none;html=1;endArrow=none;verticalAlign=bottom;rounded=0;exitX=1;exitY=0.5;exitDx=0;exitDy=0;" parent="1" source="gX7OQJnwYW2CFA1KDfCZ-61" edge="1">
          <mxGeometry width="160" relative="1" as="geometry">
            <mxPoint x="720" y="310" as="sourcePoint" />
            <mxPoint x="1100" y="390" as="targetPoint" />
          </mxGeometry>
        </mxCell>
        <mxCell id="gX7OQJnwYW2CFA1KDfCZ-66" value="" style="edgeStyle=none;html=1;endArrow=none;verticalAlign=bottom;rounded=0;exitX=1;exitY=0.5;exitDx=0;exitDy=0;entryX=0;entryY=0.3333333333333333;entryDx=0;entryDy=0;entryPerimeter=0;" parent="1" source="gX7OQJnwYW2CFA1KDfCZ-62" target="gX7OQJnwYW2CFA1KDfCZ-2" edge="1">
          <mxGeometry width="160" relative="1" as="geometry">
            <mxPoint x="720" y="310" as="sourcePoint" />
            <mxPoint x="880" y="310" as="targetPoint" />
          </mxGeometry>
        </mxCell>
        <mxCell id="gX7OQJnwYW2CFA1KDfCZ-68" value="Add/Remove Staff" style="ellipse;whiteSpace=wrap;html=1;" parent="1" vertex="1">
          <mxGeometry x="720" y="110" width="140" height="70" as="geometry" />
        </mxCell>
        <mxCell id="gX7OQJnwYW2CFA1KDfCZ-69" value="" style="edgeStyle=none;html=1;endArrow=none;verticalAlign=bottom;rounded=0;exitX=1;exitY=0.5;exitDx=0;exitDy=0;entryX=0.5;entryY=0;entryDx=0;entryDy=0;entryPerimeter=0;" parent="1" source="gX7OQJnwYW2CFA1KDfCZ-68" target="gX7OQJnwYW2CFA1KDfCZ-2" edge="1">
          <mxGeometry width="160" relative="1" as="geometry">
            <mxPoint x="720" y="10" as="sourcePoint" />
            <mxPoint x="1070" y="250" as="targetPoint" />
            <Array as="points" />
          </mxGeometry>
        </mxCell>
        <mxCell id="gX7OQJnwYW2CFA1KDfCZ-71" value="Enter&lt;br&gt;&amp;nbsp;Fines and Penalties" style="ellipse;whiteSpace=wrap;html=1;" parent="1" vertex="1">
          <mxGeometry x="710" y="1030" width="140" height="70" as="geometry" />
        </mxCell>
        <mxCell id="gX7OQJnwYW2CFA1KDfCZ-72" value="" style="edgeStyle=none;html=1;endArrow=none;verticalAlign=bottom;rounded=0;entryX=1;entryY=0.5;entryDx=0;entryDy=0;exitX=0;exitY=1;exitDx=0;exitDy=0;exitPerimeter=0;" parent="1" source="gX7OQJnwYW2CFA1KDfCZ-77" target="gX7OQJnwYW2CFA1KDfCZ-71" edge="1">
          <mxGeometry width="160" relative="1" as="geometry">
            <mxPoint x="40" y="890" as="sourcePoint" />
            <mxPoint x="210" y="1000" as="targetPoint" />
          </mxGeometry>
        </mxCell>
        <mxCell id="gX7OQJnwYW2CFA1KDfCZ-77" value="Staff" style="shape=umlActor;verticalLabelPosition=bottom;verticalAlign=top;html=1;outlineConnect=0;" parent="1" vertex="1">
          <mxGeometry x="1040" y="850" width="30" height="60" as="geometry" />
        </mxCell>
        <mxCell id="gX7OQJnwYW2CFA1KDfCZ-78" value="check Resident Information" style="ellipse;whiteSpace=wrap;html=1;" parent="1" vertex="1">
          <mxGeometry x="687" y="780" width="140" height="70" as="geometry" />
        </mxCell>
        <mxCell id="gX7OQJnwYW2CFA1KDfCZ-79" value="" style="endArrow=none;html=1;rounded=0;exitX=0;exitY=0.3333333333333333;exitDx=0;exitDy=0;exitPerimeter=0;entryX=1;entryY=0.5;entryDx=0;entryDy=0;" parent="1" source="gX7OQJnwYW2CFA1KDfCZ-77" target="gX7OQJnwYW2CFA1KDfCZ-78" edge="1">
          <mxGeometry width="50" height="50" relative="1" as="geometry">
            <mxPoint x="517" y="890" as="sourcePoint" />
            <mxPoint x="917" y="840" as="targetPoint" />
          </mxGeometry>
        </mxCell>
        <mxCell id="gX7OQJnwYW2CFA1KDfCZ-81" value="System" style="shape=umlActor;html=1;verticalLabelPosition=bottom;verticalAlign=top;align=center;" parent="1" vertex="1">
          <mxGeometry x="40" y="830" width="30" height="60" as="geometry" />
        </mxCell>
        <mxCell id="gX7OQJnwYW2CFA1KDfCZ-82" value="Generate &lt;br&gt;Fee Statement and Reminder" style="ellipse;whiteSpace=wrap;html=1;" parent="1" vertex="1">
          <mxGeometry x="220" y="780" width="140" height="70" as="geometry" />
        </mxCell>
        <mxCell id="gX7OQJnwYW2CFA1KDfCZ-83" value="Generate Salary Payment Reminder and&lt;br&gt;Statement" style="ellipse;whiteSpace=wrap;html=1;" parent="1" vertex="1">
          <mxGeometry x="220" y="860" width="140" height="70" as="geometry" />
        </mxCell>
        <mxCell id="gX7OQJnwYW2CFA1KDfCZ-85" value="" style="edgeStyle=none;html=1;endArrow=none;verticalAlign=bottom;rounded=0;exitX=1;exitY=0.3333333333333333;exitDx=0;exitDy=0;exitPerimeter=0;entryX=0;entryY=0.5;entryDx=0;entryDy=0;" parent="1" source="gX7OQJnwYW2CFA1KDfCZ-81" target="gX7OQJnwYW2CFA1KDfCZ-82" edge="1">
          <mxGeometry width="160" relative="1" as="geometry">
            <mxPoint x="460" y="800" as="sourcePoint" />
            <mxPoint x="620" y="800" as="targetPoint" />
          </mxGeometry>
        </mxCell>
        <mxCell id="gX7OQJnwYW2CFA1KDfCZ-86" value="" style="edgeStyle=none;html=1;endArrow=none;verticalAlign=bottom;rounded=0;entryX=0;entryY=0.5;entryDx=0;entryDy=0;" parent="1" source="gX7OQJnwYW2CFA1KDfCZ-81" target="gX7OQJnwYW2CFA1KDfCZ-83" edge="1">
          <mxGeometry width="160" relative="1" as="geometry">
            <mxPoint x="460" y="800" as="sourcePoint" />
            <mxPoint x="620" y="800" as="targetPoint" />
          </mxGeometry>
        </mxCell>
        <mxCell id="gX7OQJnwYW2CFA1KDfCZ-87" value="Staff Salary Payment" style="ellipse;whiteSpace=wrap;html=1;" parent="1" vertex="1">
          <mxGeometry x="750" y="535" width="140" height="70" as="geometry" />
        </mxCell>
        <mxCell id="gX7OQJnwYW2CFA1KDfCZ-88" value="Verify Hostel Funds" style="ellipse;whiteSpace=wrap;html=1;" parent="1" vertex="1">
          <mxGeometry x="550" y="515" width="140" height="70" as="geometry" />
        </mxCell>
        <mxCell id="gX7OQJnwYW2CFA1KDfCZ-91" value="" style="edgeStyle=none;html=1;endArrow=none;verticalAlign=bottom;rounded=0;exitX=1;exitY=0;exitDx=0;exitDy=0;" parent="1" source="gX7OQJnwYW2CFA1KDfCZ-87" target="gX7OQJnwYW2CFA1KDfCZ-2" edge="1">
          <mxGeometry width="160" relative="1" as="geometry">
            <mxPoint x="890" y="569.5" as="sourcePoint" />
            <mxPoint x="1050" y="569.5" as="targetPoint" />
          </mxGeometry>
        </mxCell>
        <mxCell id="gX7OQJnwYW2CFA1KDfCZ-92" value="Insuficient Funds" style="ellipse;whiteSpace=wrap;html=1;" parent="1" vertex="1">
          <mxGeometry x="547" y="620" width="140" height="70" as="geometry" />
        </mxCell>
        <mxCell id="Tg6GQiW2QLPqc6SIqj4C-1" value="&amp;lt;&amp;lt;include&amp;gt;&amp;gt;" style="edgeStyle=none;html=1;endArrow=open;verticalAlign=bottom;dashed=1;labelBackgroundColor=none;rounded=0;exitX=1;exitY=0.5;exitDx=0;exitDy=0;entryX=0;entryY=0.5;entryDx=0;entryDy=0;" parent="1" source="gX7OQJnwYW2CFA1KDfCZ-12" target="gX7OQJnwYW2CFA1KDfCZ-25" edge="1">
          <mxGeometry width="160" relative="1" as="geometry">
            <mxPoint x="450" y="290" as="sourcePoint" />
            <mxPoint x="610" y="290" as="targetPoint" />
          </mxGeometry>
        </mxCell>
        <mxCell id="Tg6GQiW2QLPqc6SIqj4C-2" value="&amp;lt;&amp;lt;extend&amp;gt;&amp;gt;" style="edgeStyle=none;html=1;startArrow=open;endArrow=none;startSize=12;verticalAlign=bottom;dashed=1;labelBackgroundColor=none;rounded=0;exitX=0.966;exitY=0.686;exitDx=0;exitDy=0;exitPerimeter=0;entryX=0;entryY=0.5;entryDx=0;entryDy=0;" parent="1" source="gX7OQJnwYW2CFA1KDfCZ-12" target="gX7OQJnwYW2CFA1KDfCZ-28" edge="1">
          <mxGeometry width="160" relative="1" as="geometry">
            <mxPoint x="450" y="290" as="sourcePoint" />
            <mxPoint x="610" y="290" as="targetPoint" />
          </mxGeometry>
        </mxCell>
        <mxCell id="Tg6GQiW2QLPqc6SIqj4C-3" value="&amp;lt;&amp;lt;include&amp;gt;&amp;gt;" style="edgeStyle=none;html=1;endArrow=open;verticalAlign=bottom;dashed=1;labelBackgroundColor=none;rounded=0;exitX=1;exitY=0;exitDx=0;exitDy=0;entryX=0.027;entryY=0.685;entryDx=0;entryDy=0;entryPerimeter=0;" parent="1" source="gX7OQJnwYW2CFA1KDfCZ-15" target="gX7OQJnwYW2CFA1KDfCZ-49" edge="1">
          <mxGeometry width="160" relative="1" as="geometry">
            <mxPoint x="450" y="490" as="sourcePoint" />
            <mxPoint x="610" y="490" as="targetPoint" />
          </mxGeometry>
        </mxCell>
        <mxCell id="Tg6GQiW2QLPqc6SIqj4C-4" value="&amp;lt;&amp;lt;extend&amp;gt;&amp;gt;" style="edgeStyle=none;html=1;startArrow=open;endArrow=none;startSize=12;verticalAlign=bottom;dashed=1;labelBackgroundColor=none;rounded=0;exitX=1;exitY=1;exitDx=0;exitDy=0;" parent="1" source="gX7OQJnwYW2CFA1KDfCZ-15" target="gX7OQJnwYW2CFA1KDfCZ-46" edge="1">
          <mxGeometry x="0.118" y="7" width="160" relative="1" as="geometry">
            <mxPoint x="450" y="490" as="sourcePoint" />
            <mxPoint x="610" y="490" as="targetPoint" />
            <mxPoint as="offset" />
          </mxGeometry>
        </mxCell>
        <mxCell id="Tg6GQiW2QLPqc6SIqj4C-5" value="&amp;lt;&amp;lt;extend&amp;gt;&amp;gt;" style="edgeStyle=none;html=1;startArrow=open;endArrow=none;startSize=12;verticalAlign=bottom;dashed=1;labelBackgroundColor=none;rounded=0;entryX=0.051;entryY=0.729;entryDx=0;entryDy=0;entryPerimeter=0;exitX=0.987;exitY=0.303;exitDx=0;exitDy=0;exitPerimeter=0;" parent="1" source="gX7OQJnwYW2CFA1KDfCZ-92" target="gX7OQJnwYW2CFA1KDfCZ-87" edge="1">
          <mxGeometry width="160" relative="1" as="geometry">
            <mxPoint x="450" y="690" as="sourcePoint" />
            <mxPoint x="610" y="690" as="targetPoint" />
          </mxGeometry>
        </mxCell>
        <mxCell id="Tg6GQiW2QLPqc6SIqj4C-6" value="&amp;lt;&amp;lt;include&amp;gt;&amp;gt;" style="edgeStyle=none;html=1;endArrow=open;verticalAlign=bottom;dashed=1;labelBackgroundColor=none;rounded=0;exitX=0.76;exitY=0.089;exitDx=0;exitDy=0;exitPerimeter=0;entryX=0.234;entryY=0.077;entryDx=0;entryDy=0;entryPerimeter=0;" parent="1" source="gX7OQJnwYW2CFA1KDfCZ-88" target="gX7OQJnwYW2CFA1KDfCZ-87" edge="1">
          <mxGeometry width="160" relative="1" as="geometry">
            <mxPoint x="450" y="690" as="sourcePoint" />
            <mxPoint x="610" y="690" as="targetPoint" />
          </mxGeometry>
        </mxCell>
      </root>
    </mxGraphModel>
  </diagram>
  <diagram id="2Zf8GSTWwkxQUTAHD_nH" name="Page-2">
    <mxGraphModel dx="1038" dy="1613" grid="1" gridSize="10" guides="1" tooltips="1" connect="1" arrows="1" fold="1" page="1" pageScale="1" pageWidth="850" pageHeight="1100" background="#DAD2D8" math="0" shadow="0">
      <root>
        <mxCell id="0" />
        <mxCell id="1" parent="0" />
        <mxCell id="2lRK2K30bL6w_CMydCKA-2" value="Student" style="shape=umlLifeline;participant=umlActor;perimeter=lifelinePerimeter;whiteSpace=wrap;html=1;container=1;collapsible=0;recursiveResize=0;verticalAlign=top;spacingTop=36;outlineConnect=0;fillColor=#FAE5C7;strokeColor=#0F8B8D;fontColor=#143642;" vertex="1" parent="1">
          <mxGeometry x="280" y="-1040" width="20" height="1110" as="geometry" />
        </mxCell>
        <mxCell id="2lRK2K30bL6w_CMydCKA-15" value="Login" style="html=1;verticalAlign=bottom;endArrow=block;rounded=0;labelBackgroundColor=#DAD2D8;strokeColor=#A8201A;fontColor=#143642;" edge="1" parent="2lRK2K30bL6w_CMydCKA-2" target="2lRK2K30bL6w_CMydCKA-3">
          <mxGeometry x="-0.0734" width="80" relative="1" as="geometry">
            <mxPoint x="10" y="150" as="sourcePoint" />
            <mxPoint x="90" y="150" as="targetPoint" />
            <mxPoint as="offset" />
          </mxGeometry>
        </mxCell>
        <mxCell id="2lRK2K30bL6w_CMydCKA-21" value="Search Room&amp;nbsp;" style="html=1;verticalAlign=bottom;endArrow=block;rounded=0;labelBackgroundColor=#DAD2D8;strokeColor=#A8201A;fontColor=#143642;" edge="1" parent="2lRK2K30bL6w_CMydCKA-2" target="2lRK2K30bL6w_CMydCKA-3">
          <mxGeometry width="80" relative="1" as="geometry">
            <mxPoint x="10" y="290" as="sourcePoint" />
            <mxPoint x="90" y="290" as="targetPoint" />
          </mxGeometry>
        </mxCell>
        <mxCell id="2lRK2K30bL6w_CMydCKA-3" value="Hostel&amp;nbsp;&lt;br&gt;management" style="shape=umlLifeline;perimeter=lifelinePerimeter;whiteSpace=wrap;html=1;container=1;collapsible=0;recursiveResize=0;outlineConnect=0;fillColor=#FAE5C7;strokeColor=#0F8B8D;fontColor=#143642;" vertex="1" parent="1">
          <mxGeometry x="370" y="-1040" width="100" height="1110" as="geometry" />
        </mxCell>
        <mxCell id="2lRK2K30bL6w_CMydCKA-16" value="Login Success" style="html=1;verticalAlign=bottom;endArrow=open;dashed=1;endSize=8;rounded=0;labelBackgroundColor=#DAD2D8;strokeColor=#A8201A;fontColor=#143642;" edge="1" parent="2lRK2K30bL6w_CMydCKA-3" target="2lRK2K30bL6w_CMydCKA-2">
          <mxGeometry relative="1" as="geometry">
            <mxPoint x="50" y="180" as="sourcePoint" />
            <mxPoint x="-30" y="180" as="targetPoint" />
            <Array as="points">
              <mxPoint x="-20" y="180" />
            </Array>
          </mxGeometry>
        </mxCell>
        <mxCell id="2lRK2K30bL6w_CMydCKA-17" value="Alternative" style="shape=umlFrame;whiteSpace=wrap;html=1;fillColor=#FAE5C7;strokeColor=#0F8B8D;fontColor=#143642;" vertex="1" parent="2lRK2K30bL6w_CMydCKA-3">
          <mxGeometry x="-140" y="160" width="220" height="110" as="geometry" />
        </mxCell>
        <mxCell id="2lRK2K30bL6w_CMydCKA-18" value="" style="endArrow=none;dashed=1;html=1;dashPattern=1 3;strokeWidth=2;rounded=0;entryX=0;entryY=0.515;entryDx=0;entryDy=0;entryPerimeter=0;exitX=1;exitY=0.536;exitDx=0;exitDy=0;exitPerimeter=0;labelBackgroundColor=#DAD2D8;strokeColor=#A8201A;fontColor=#143642;" edge="1" parent="2lRK2K30bL6w_CMydCKA-3" source="2lRK2K30bL6w_CMydCKA-17" target="2lRK2K30bL6w_CMydCKA-17">
          <mxGeometry width="50" height="50" relative="1" as="geometry">
            <mxPoint x="100" y="187" as="sourcePoint" />
            <mxPoint x="240" y="180" as="targetPoint" />
            <Array as="points" />
          </mxGeometry>
        </mxCell>
        <mxCell id="2lRK2K30bL6w_CMydCKA-22" value="Request Room Info" style="html=1;verticalAlign=bottom;endArrow=block;rounded=0;labelBackgroundColor=#DAD2D8;strokeColor=#A8201A;fontColor=#143642;" edge="1" parent="2lRK2K30bL6w_CMydCKA-3" target="2lRK2K30bL6w_CMydCKA-5">
          <mxGeometry width="80" relative="1" as="geometry">
            <mxPoint x="50" y="310" as="sourcePoint" />
            <mxPoint x="130" y="310" as="targetPoint" />
          </mxGeometry>
        </mxCell>
        <mxCell id="2lRK2K30bL6w_CMydCKA-59" value="Room Details" style="html=1;verticalAlign=bottom;endArrow=block;rounded=0;labelBackgroundColor=#DAD2D8;strokeColor=#A8201A;fontColor=#143642;" edge="1" parent="2lRK2K30bL6w_CMydCKA-3" target="2lRK2K30bL6w_CMydCKA-5">
          <mxGeometry width="80" relative="1" as="geometry">
            <mxPoint x="50" y="740" as="sourcePoint" />
            <mxPoint x="130" y="740" as="targetPoint" />
          </mxGeometry>
        </mxCell>
        <mxCell id="2lRK2K30bL6w_CMydCKA-81" value="" style="html=1;points=[];perimeter=orthogonalPerimeter;fillColor=#FAE5C7;strokeColor=#0F8B8D;fontColor=#143642;" vertex="1" parent="2lRK2K30bL6w_CMydCKA-3">
          <mxGeometry x="45" y="70" width="10" height="60" as="geometry" />
        </mxCell>
        <mxCell id="2lRK2K30bL6w_CMydCKA-82" value="" style="html=1;points=[];perimeter=orthogonalPerimeter;fillColor=#FAE5C7;strokeColor=#0F8B8D;fontColor=#143642;" vertex="1" parent="2lRK2K30bL6w_CMydCKA-3">
          <mxGeometry x="45" y="140" width="10" height="130" as="geometry" />
        </mxCell>
        <mxCell id="2lRK2K30bL6w_CMydCKA-83" value="" style="html=1;points=[];perimeter=orthogonalPerimeter;fillColor=#FAE5C7;strokeColor=#0F8B8D;fontColor=#143642;" vertex="1" parent="2lRK2K30bL6w_CMydCKA-3">
          <mxGeometry x="45" y="280" width="10" height="90" as="geometry" />
        </mxCell>
        <mxCell id="2lRK2K30bL6w_CMydCKA-86" value="" style="html=1;points=[];perimeter=orthogonalPerimeter;fillColor=#FAE5C7;strokeColor=#0F8B8D;fontColor=#143642;" vertex="1" parent="2lRK2K30bL6w_CMydCKA-3">
          <mxGeometry x="45" y="390" width="10" height="280" as="geometry" />
        </mxCell>
        <mxCell id="2lRK2K30bL6w_CMydCKA-87" value="" style="html=1;points=[];perimeter=orthogonalPerimeter;fillColor=#FAE5C7;strokeColor=#0F8B8D;fontColor=#143642;" vertex="1" parent="2lRK2K30bL6w_CMydCKA-3">
          <mxGeometry x="45" y="710" width="10" height="170" as="geometry" />
        </mxCell>
        <mxCell id="2lRK2K30bL6w_CMydCKA-88" value="" style="html=1;points=[];perimeter=orthogonalPerimeter;fillColor=#FAE5C7;strokeColor=#0F8B8D;fontColor=#143642;" vertex="1" parent="2lRK2K30bL6w_CMydCKA-3">
          <mxGeometry x="45" y="900" width="10" height="210" as="geometry" />
        </mxCell>
        <mxCell id="2lRK2K30bL6w_CMydCKA-5" value="Room" style="shape=umlLifeline;perimeter=lifelinePerimeter;whiteSpace=wrap;html=1;container=1;collapsible=0;recursiveResize=0;outlineConnect=0;fillColor=#FAE5C7;strokeColor=#0F8B8D;fontColor=#143642;" vertex="1" parent="1">
          <mxGeometry x="490" y="-1040" width="150" height="1090" as="geometry" />
        </mxCell>
        <mxCell id="2lRK2K30bL6w_CMydCKA-50" value="&amp;nbsp;Room Unavailable" style="html=1;verticalAlign=bottom;endArrow=open;dashed=1;endSize=8;rounded=0;labelBackgroundColor=#DAD2D8;strokeColor=#A8201A;fontColor=#143642;" edge="1" parent="2lRK2K30bL6w_CMydCKA-5" target="2lRK2K30bL6w_CMydCKA-2">
          <mxGeometry relative="1" as="geometry">
            <mxPoint x="90" y="620" as="sourcePoint" />
            <mxPoint x="10" y="620" as="targetPoint" />
          </mxGeometry>
        </mxCell>
        <mxCell id="2lRK2K30bL6w_CMydCKA-55" value="Room Details" style="html=1;verticalAlign=bottom;endArrow=open;dashed=1;endSize=8;rounded=0;labelBackgroundColor=#DAD2D8;strokeColor=#A8201A;fontColor=#143642;" edge="1" parent="2lRK2K30bL6w_CMydCKA-5" target="2lRK2K30bL6w_CMydCKA-3">
          <mxGeometry relative="1" as="geometry">
            <mxPoint x="80" y="330" as="sourcePoint" />
            <mxPoint y="330" as="targetPoint" />
            <Array as="points">
              <mxPoint y="330" />
            </Array>
          </mxGeometry>
        </mxCell>
        <mxCell id="2lRK2K30bL6w_CMydCKA-29" value="Initiate Payment" style="html=1;verticalAlign=bottom;endArrow=block;rounded=0;labelBackgroundColor=#DAD2D8;strokeColor=#A8201A;fontColor=#143642;" edge="1" parent="2lRK2K30bL6w_CMydCKA-5" target="2lRK2K30bL6w_CMydCKA-6">
          <mxGeometry width="80" relative="1" as="geometry">
            <mxPoint x="80" y="460" as="sourcePoint" />
            <mxPoint x="195" y="460" as="targetPoint" />
          </mxGeometry>
        </mxCell>
        <mxCell id="2lRK2K30bL6w_CMydCKA-51" value="Alternative" style="shape=umlFrame;whiteSpace=wrap;html=1;fillColor=#FAE5C7;strokeColor=#0F8B8D;fontColor=#143642;" vertex="1" parent="2lRK2K30bL6w_CMydCKA-5">
          <mxGeometry x="-250" y="440" width="540" height="220" as="geometry" />
        </mxCell>
        <mxCell id="2lRK2K30bL6w_CMydCKA-60" value="Addition/Deletion Successful" style="html=1;verticalAlign=bottom;endArrow=open;dashed=1;endSize=8;rounded=0;labelBackgroundColor=#DAD2D8;strokeColor=#A8201A;fontColor=#143642;" edge="1" parent="2lRK2K30bL6w_CMydCKA-5" target="2lRK2K30bL6w_CMydCKA-56">
          <mxGeometry relative="1" as="geometry">
            <mxPoint x="70" y="780" as="sourcePoint" />
            <mxPoint x="-10" y="780" as="targetPoint" />
          </mxGeometry>
        </mxCell>
        <mxCell id="2lRK2K30bL6w_CMydCKA-65" value="Initiate Payment" style="html=1;verticalAlign=bottom;endArrow=block;rounded=0;labelBackgroundColor=#DAD2D8;strokeColor=#A8201A;fontColor=#143642;" edge="1" parent="2lRK2K30bL6w_CMydCKA-5" target="2lRK2K30bL6w_CMydCKA-6">
          <mxGeometry width="80" relative="1" as="geometry">
            <mxPoint x="-70" y="930" as="sourcePoint" />
            <mxPoint x="10" y="930" as="targetPoint" />
          </mxGeometry>
        </mxCell>
        <mxCell id="2lRK2K30bL6w_CMydCKA-73" value="Payment Declined" style="html=1;verticalAlign=bottom;endArrow=block;rounded=0;labelBackgroundColor=#DAD2D8;strokeColor=#A8201A;fontColor=#143642;" edge="1" parent="2lRK2K30bL6w_CMydCKA-5" target="2lRK2K30bL6w_CMydCKA-6">
          <mxGeometry width="80" relative="1" as="geometry">
            <mxPoint x="-200" y="1050" as="sourcePoint" />
            <mxPoint x="180" y="1050" as="targetPoint" />
            <mxPoint as="offset" />
          </mxGeometry>
        </mxCell>
        <mxCell id="2lRK2K30bL6w_CMydCKA-77" value="Requesr Payment" style="html=1;verticalAlign=bottom;endArrow=open;dashed=1;endSize=8;rounded=0;entryX=0.093;entryY=0.182;entryDx=0;entryDy=0;entryPerimeter=0;labelBackgroundColor=#DAD2D8;strokeColor=#A8201A;fontColor=#143642;" edge="1" parent="2lRK2K30bL6w_CMydCKA-5" target="2lRK2K30bL6w_CMydCKA-51">
          <mxGeometry relative="1" as="geometry">
            <mxPoint x="250" y="480" as="sourcePoint" />
            <mxPoint x="170" y="480" as="targetPoint" />
          </mxGeometry>
        </mxCell>
        <mxCell id="2lRK2K30bL6w_CMydCKA-89" value="" style="html=1;points=[];perimeter=orthogonalPerimeter;fillColor=#FAE5C7;strokeColor=#0F8B8D;fontColor=#143642;" vertex="1" parent="2lRK2K30bL6w_CMydCKA-5">
          <mxGeometry x="70" y="280" width="10" height="80" as="geometry" />
        </mxCell>
        <mxCell id="2lRK2K30bL6w_CMydCKA-90" value="" style="html=1;points=[];perimeter=orthogonalPerimeter;fillColor=#FAE5C7;strokeColor=#0F8B8D;fontColor=#143642;" vertex="1" parent="2lRK2K30bL6w_CMydCKA-5">
          <mxGeometry x="70" y="420" width="10" height="250" as="geometry" />
        </mxCell>
        <mxCell id="2lRK2K30bL6w_CMydCKA-91" value="" style="html=1;points=[];perimeter=orthogonalPerimeter;fillColor=#FAE5C7;strokeColor=#0F8B8D;fontColor=#143642;" vertex="1" parent="2lRK2K30bL6w_CMydCKA-5">
          <mxGeometry x="70" y="720" width="10" height="80" as="geometry" />
        </mxCell>
        <mxCell id="2lRK2K30bL6w_CMydCKA-6" value="Payment" style="shape=umlLifeline;perimeter=lifelinePerimeter;whiteSpace=wrap;html=1;container=1;collapsible=0;recursiveResize=0;outlineConnect=0;fillColor=#FAE5C7;strokeColor=#0F8B8D;fontColor=#143642;" vertex="1" parent="1">
          <mxGeometry x="690" y="-1040" width="100" height="1110" as="geometry" />
        </mxCell>
        <mxCell id="2lRK2K30bL6w_CMydCKA-70" value="Ask Payment" style="html=1;verticalAlign=bottom;endArrow=open;dashed=1;endSize=8;rounded=0;labelBackgroundColor=#DAD2D8;strokeColor=#A8201A;fontColor=#143642;" edge="1" parent="2lRK2K30bL6w_CMydCKA-6" target="2lRK2K30bL6w_CMydCKA-2">
          <mxGeometry relative="1" as="geometry">
            <mxPoint x="50" y="970" as="sourcePoint" />
            <mxPoint x="-30" y="970" as="targetPoint" />
          </mxGeometry>
        </mxCell>
        <mxCell id="2lRK2K30bL6w_CMydCKA-92" value="" style="html=1;points=[];perimeter=orthogonalPerimeter;fillColor=#FAE5C7;strokeColor=#0F8B8D;fontColor=#143642;" vertex="1" parent="2lRK2K30bL6w_CMydCKA-6">
          <mxGeometry x="45" y="890" width="10" height="220" as="geometry" />
        </mxCell>
        <mxCell id="2lRK2K30bL6w_CMydCKA-93" value="" style="html=1;points=[];perimeter=orthogonalPerimeter;fillColor=#FAE5C7;strokeColor=#0F8B8D;fontColor=#143642;" vertex="1" parent="2lRK2K30bL6w_CMydCKA-6">
          <mxGeometry x="45" y="410" width="10" height="260" as="geometry" />
        </mxCell>
        <mxCell id="2lRK2K30bL6w_CMydCKA-8" value="Register" style="html=1;verticalAlign=bottom;endArrow=block;rounded=0;labelBackgroundColor=#DAD2D8;strokeColor=#A8201A;fontColor=#143642;" edge="1" parent="1" target="2lRK2K30bL6w_CMydCKA-3">
          <mxGeometry x="0.0811" y="10" width="80" relative="1" as="geometry">
            <mxPoint x="290" y="-950" as="sourcePoint" />
            <mxPoint x="370" y="-950" as="targetPoint" />
            <Array as="points">
              <mxPoint x="350" y="-950" />
            </Array>
            <mxPoint as="offset" />
          </mxGeometry>
        </mxCell>
        <mxCell id="2lRK2K30bL6w_CMydCKA-14" value="Registration Success" style="html=1;verticalAlign=bottom;endArrow=open;dashed=1;endSize=8;rounded=0;labelBackgroundColor=#DAD2D8;strokeColor=#A8201A;fontColor=#143642;" edge="1" parent="1" target="2lRK2K30bL6w_CMydCKA-2">
          <mxGeometry relative="1" as="geometry">
            <mxPoint x="420" y="-920" as="sourcePoint" />
            <mxPoint x="340" y="-920" as="targetPoint" />
          </mxGeometry>
        </mxCell>
        <mxCell id="2lRK2K30bL6w_CMydCKA-19" value="Login Failed" style="html=1;verticalAlign=bottom;endArrow=open;dashed=1;endSize=8;rounded=0;entryX=0.25;entryY=0.727;entryDx=0;entryDy=0;entryPerimeter=0;labelBackgroundColor=#DAD2D8;strokeColor=#A8201A;fontColor=#143642;" edge="1" parent="1" target="2lRK2K30bL6w_CMydCKA-17">
          <mxGeometry relative="1" as="geometry">
            <mxPoint x="420" y="-800" as="sourcePoint" />
            <mxPoint x="340" y="-800" as="targetPoint" />
          </mxGeometry>
        </mxCell>
        <mxCell id="2lRK2K30bL6w_CMydCKA-25" value="Show Rooms" style="html=1;verticalAlign=bottom;endArrow=open;dashed=1;endSize=8;rounded=0;labelBackgroundColor=#DAD2D8;strokeColor=#A8201A;fontColor=#143642;" edge="1" parent="1" target="2lRK2K30bL6w_CMydCKA-2">
          <mxGeometry relative="1" as="geometry">
            <mxPoint x="420" y="-680" as="sourcePoint" />
            <mxPoint x="340" y="-680" as="targetPoint" />
          </mxGeometry>
        </mxCell>
        <mxCell id="2lRK2K30bL6w_CMydCKA-26" value="Book Room(Single/Double/AC))" style="html=1;verticalAlign=bottom;endArrow=block;rounded=0;labelBackgroundColor=#DAD2D8;strokeColor=#A8201A;fontColor=#143642;" edge="1" parent="1" target="2lRK2K30bL6w_CMydCKA-3">
          <mxGeometry width="80" relative="1" as="geometry">
            <mxPoint x="290" y="-640" as="sourcePoint" />
            <mxPoint x="370" y="-640" as="targetPoint" />
          </mxGeometry>
        </mxCell>
        <mxCell id="2lRK2K30bL6w_CMydCKA-28" value="Check Room Status" style="html=1;verticalAlign=bottom;endArrow=block;rounded=0;labelBackgroundColor=#DAD2D8;strokeColor=#A8201A;fontColor=#143642;" edge="1" parent="1" target="2lRK2K30bL6w_CMydCKA-5">
          <mxGeometry width="80" relative="1" as="geometry">
            <mxPoint x="420" y="-610" as="sourcePoint" />
            <mxPoint x="500" y="-610" as="targetPoint" />
          </mxGeometry>
        </mxCell>
        <mxCell id="2lRK2K30bL6w_CMydCKA-43" value="Payment Success" style="html=1;verticalAlign=bottom;endArrow=open;dashed=1;endSize=8;rounded=0;labelBackgroundColor=#DAD2D8;strokeColor=#A8201A;fontColor=#143642;" edge="1" parent="1" target="2lRK2K30bL6w_CMydCKA-6">
          <mxGeometry relative="1" as="geometry">
            <mxPoint x="290" y="-521" as="sourcePoint" />
            <mxPoint x="370" y="-521" as="targetPoint" />
          </mxGeometry>
        </mxCell>
        <mxCell id="2lRK2K30bL6w_CMydCKA-45" value="Payment Declined" style="html=1;verticalAlign=bottom;endArrow=block;rounded=0;labelBackgroundColor=#DAD2D8;strokeColor=#A8201A;fontColor=#143642;" edge="1" parent="1" target="2lRK2K30bL6w_CMydCKA-6">
          <mxGeometry width="80" relative="1" as="geometry">
            <mxPoint x="290" y="-490" as="sourcePoint" />
            <mxPoint x="370" y="-490" as="targetPoint" />
          </mxGeometry>
        </mxCell>
        <mxCell id="2lRK2K30bL6w_CMydCKA-47" value="" style="endArrow=none;dashed=1;html=1;dashPattern=1 3;strokeWidth=2;rounded=0;entryX=1.003;entryY=0.469;entryDx=0;entryDy=0;entryPerimeter=0;exitX=-0.005;exitY=0.518;exitDx=0;exitDy=0;exitPerimeter=0;labelBackgroundColor=#DAD2D8;strokeColor=#A8201A;fontColor=#143642;" edge="1" parent="1" source="2lRK2K30bL6w_CMydCKA-46" target="2lRK2K30bL6w_CMydCKA-46">
          <mxGeometry width="50" height="50" relative="1" as="geometry">
            <mxPoint x="322.45" y="-340" as="sourcePoint" />
            <mxPoint x="782.45" y="-340" as="targetPoint" />
          </mxGeometry>
        </mxCell>
        <mxCell id="2lRK2K30bL6w_CMydCKA-53" value="" style="endArrow=none;dashed=1;html=1;dashPattern=1 3;strokeWidth=2;rounded=0;labelBackgroundColor=#DAD2D8;strokeColor=#A8201A;fontColor=#143642;" edge="1" parent="1">
          <mxGeometry width="50" height="50" relative="1" as="geometry">
            <mxPoint x="240" y="-440" as="sourcePoint" />
            <mxPoint x="780" y="-440" as="targetPoint" />
          </mxGeometry>
        </mxCell>
        <mxCell id="2lRK2K30bL6w_CMydCKA-56" value="Warden" style="shape=umlLifeline;participant=umlActor;perimeter=lifelinePerimeter;whiteSpace=wrap;html=1;container=1;collapsible=0;recursiveResize=0;verticalAlign=top;spacingTop=36;outlineConnect=0;fillColor=#FAE5C7;strokeColor=#0F8B8D;fontColor=#143642;" vertex="1" parent="1">
          <mxGeometry x="170" y="-1040" width="20" height="1080" as="geometry" />
        </mxCell>
        <mxCell id="2lRK2K30bL6w_CMydCKA-57" value="Add/Delete Rooms" style="html=1;verticalAlign=bottom;endArrow=block;rounded=0;labelBackgroundColor=#DAD2D8;strokeColor=#A8201A;fontColor=#143642;" edge="1" parent="1" target="2lRK2K30bL6w_CMydCKA-3">
          <mxGeometry width="80" relative="1" as="geometry">
            <mxPoint x="180" y="-320" as="sourcePoint" />
            <mxPoint x="260" y="-320" as="targetPoint" />
          </mxGeometry>
        </mxCell>
        <mxCell id="2lRK2K30bL6w_CMydCKA-61" value="Get Student Info" style="html=1;verticalAlign=bottom;endArrow=block;rounded=0;labelBackgroundColor=#DAD2D8;strokeColor=#A8201A;fontColor=#143642;" edge="1" parent="1" target="2lRK2K30bL6w_CMydCKA-3">
          <mxGeometry width="80" relative="1" as="geometry">
            <mxPoint x="180" y="-200" as="sourcePoint" />
            <mxPoint x="260" y="-200" as="targetPoint" />
          </mxGeometry>
        </mxCell>
        <mxCell id="2lRK2K30bL6w_CMydCKA-62" value="Student Info" style="html=1;verticalAlign=bottom;endArrow=open;dashed=1;endSize=8;rounded=0;labelBackgroundColor=#DAD2D8;strokeColor=#A8201A;fontColor=#143642;" edge="1" parent="1" target="2lRK2K30bL6w_CMydCKA-56">
          <mxGeometry relative="1" as="geometry">
            <mxPoint x="420" y="-170" as="sourcePoint" />
            <mxPoint x="340" y="-170" as="targetPoint" />
          </mxGeometry>
        </mxCell>
        <mxCell id="2lRK2K30bL6w_CMydCKA-63" value="System" style="shape=umlLifeline;participant=umlActor;perimeter=lifelinePerimeter;whiteSpace=wrap;html=1;container=1;collapsible=0;recursiveResize=0;verticalAlign=top;spacingTop=36;outlineConnect=0;fillColor=#FAE5C7;strokeColor=#0F8B8D;fontColor=#143642;" vertex="1" parent="1">
          <mxGeometry x="110" y="-1040" width="20" height="1070" as="geometry" />
        </mxCell>
        <mxCell id="2lRK2K30bL6w_CMydCKA-64" value="Initiate Fee Payment" style="html=1;verticalAlign=bottom;endArrow=block;rounded=0;labelBackgroundColor=#DAD2D8;strokeColor=#A8201A;fontColor=#143642;" edge="1" parent="1" target="2lRK2K30bL6w_CMydCKA-3">
          <mxGeometry width="80" relative="1" as="geometry">
            <mxPoint x="120" y="-130" as="sourcePoint" />
            <mxPoint x="200" y="-130" as="targetPoint" />
          </mxGeometry>
        </mxCell>
        <mxCell id="2lRK2K30bL6w_CMydCKA-72" value="Pay Fees" style="html=1;verticalAlign=bottom;endArrow=block;rounded=0;labelBackgroundColor=#DAD2D8;strokeColor=#A8201A;fontColor=#143642;" edge="1" parent="1" target="2lRK2K30bL6w_CMydCKA-6">
          <mxGeometry width="80" relative="1" as="geometry">
            <mxPoint x="290" y="-40" as="sourcePoint" />
            <mxPoint x="370" y="-40" as="targetPoint" />
          </mxGeometry>
        </mxCell>
        <mxCell id="2lRK2K30bL6w_CMydCKA-74" value="Alternative" style="shape=umlFrame;whiteSpace=wrap;html=1;fillColor=#FAE5C7;strokeColor=#0F8B8D;fontColor=#143642;" vertex="1" parent="1">
          <mxGeometry x="250" y="-60" width="520" height="120" as="geometry" />
        </mxCell>
        <mxCell id="2lRK2K30bL6w_CMydCKA-76" value="" style="endArrow=none;dashed=1;html=1;dashPattern=1 3;strokeWidth=2;rounded=0;exitX=0.002;exitY=0.335;exitDx=0;exitDy=0;exitPerimeter=0;entryX=1.001;entryY=0.335;entryDx=0;entryDy=0;entryPerimeter=0;labelBackgroundColor=#DAD2D8;strokeColor=#A8201A;fontColor=#143642;" edge="1" parent="1" source="2lRK2K30bL6w_CMydCKA-74" target="2lRK2K30bL6w_CMydCKA-74">
          <mxGeometry width="50" height="50" relative="1" as="geometry">
            <mxPoint x="560" y="-100" as="sourcePoint" />
            <mxPoint x="610" y="-150" as="targetPoint" />
          </mxGeometry>
        </mxCell>
        <mxCell id="2lRK2K30bL6w_CMydCKA-46" value="Alternative" style="shape=umlFrame;whiteSpace=wrap;html=1;fillColor=#FAE5C7;strokeColor=#0F8B8D;fontColor=#143642;" vertex="1" parent="1">
          <mxGeometry x="260" y="-550" width="490" height="90" as="geometry" />
        </mxCell>
      </root>
    </mxGraphModel>
  </diagram>
</mxfile>
